<?xml version="1.0" encoding="UTF-8" standalone="no"?>
<svg
   xmlns:dc="http://purl.org/dc/elements/1.1/"
   xmlns:cc="http://creativecommons.org/ns#"
   xmlns:rdf="http://www.w3.org/1999/02/22-rdf-syntax-ns#"
   xmlns:svg="http://www.w3.org/2000/svg"
   xmlns="http://www.w3.org/2000/svg"
   version="1.1"
   id="svg4169"
   viewBox="0 0 400 302.245"
   height="302.245"
   width="400">
  <defs
     id="defs4171" />
  <metadata
     id="metadata4174">
    <rdf:RDF>
      <cc:Work
         rdf:about="">
        <dc:format>image/svg+xml</dc:format>
        <dc:type
           rdf:resource="http://purl.org/dc/dcmitype/StillImage" />
        <dc:title></dc:title>
      </cc:Work>
    </rdf:RDF>
  </metadata>
  <g
     style="display:inline"
     transform="translate(-115.76347,-324.30714)"
     id="layer2">
    <path
       id="path4741"
       d="m 255.7587,625.50268 c -1.20612,-0.59426 -2.86399,-2.13372 -3.68415,-3.42102 -0.82015,-1.28731 -10.73012,-22.13195 -22.02214,-46.32144 l -20.53094,-43.98088 -17.67048,-4.32772 c -9.71875,-2.38025 -29.30353,-7.13761 -43.52171,-10.57192 -14.21818,-3.43431 -26.63514,-6.64909 -27.59323,-7.14397 -5.63909,-2.9127 -6.70991,-11.04224 -2.03578,-15.45533 1.1614,-1.09653 68.94151,-31.15264 188.33602,-83.51489 102.58691,-44.99101 188.92543,-82.86207 191.86337,-84.1579 6.31637,-2.78594 9.53735,-3.00343 12.72282,-0.85909 2.97286,2.00122 4.18695,4.63327 4.13966,8.97442 -0.0358,3.28441 -4.66592,14.31411 -52.88652,125.98392 -29.06602,67.31141 -53.49066,123.08498 -54.27698,123.94127 -1.67216,1.82094 -4.97374,3.35158 -7.22935,3.35158 -0.87324,0 -16.40232,-4.85938 -34.50905,-10.79863 -18.10675,-5.93924 -33.23153,-10.79534 -33.61064,-10.79133 -0.37911,0.004 -15.36298,12.95188 -33.29751,28.77306 -17.93452,15.82119 -33.5782,29.36528 -34.76374,30.09797 -2.60369,1.60917 -6.43122,1.69924 -9.42965,0.2219 z m 48.65974,-60.68284 c 3.23959,-2.87046 5.97327,-5.41052 6.07485,-5.64457 0.29556,-0.68101 -24.83332,-8.63971 -25.38696,-8.04044 -0.27551,0.29824 -2.17646,8.3467 -4.22433,17.88548 -2.04785,9.53878 -3.89632,18.07035 -4.10769,18.95903 -0.37733,1.58648 1.3356,0.15143 27.64413,-23.1595 z m -41.56238,-5.82946 c 2.89147,-13.25548 5.70595,-24.96864 6.25442,-26.02925 0.54846,-1.0606 28.89091,-26.69913 62.98323,-56.97449 34.09231,-30.27536 63.01679,-56.06987 64.27663,-57.32114 l 2.29062,-2.27502 -2.61785,1.62274 c -10.64591,6.59917 -165.69751,107.9948 -166.13189,108.64156 -0.35743,0.53219 4.27198,11.15838 13.08924,30.0446 10.68836,22.89403 13.74577,28.91486 14.12032,27.80651 0.26294,-0.77805 2.84381,-12.26004 5.73528,-25.51551 z m 174.83968,-89.94921 c 22.90896,-53.17767 41.56274,-96.7832 41.45289,-96.90119 -0.10986,-0.11799 -41.03469,36.0625 -90.94407,80.4011 -49.90938,44.33859 -90.60211,80.75783 -90.42829,80.93166 0.36416,0.36415 96.62375,32.11865 97.61238,32.20075 0.35996,0.0299 19.39815,-43.45464 42.3071,-96.63232 z m -214.94238,38.20311 c 4.60094,-3.02077 45.76785,-29.84861 91.48201,-59.61744 45.71417,-29.76881 83.41117,-54.41073 83.77113,-54.7598 0.82503,-0.80009 12.90801,-6.0586 -117.47592,51.12552 -61.73212,27.07464 -114.30177,50.1202 -116.82145,51.21236 -2.51967,1.09217 -5.14923,2.28253 -5.84345,2.64523 -0.99156,0.51806 3.00811,1.69511 18.65216,5.48908 18.15347,4.40255 37.37234,9.15419 37.72752,9.32767 0.0785,0.0384 3.90705,-2.40185 8.508,-5.42262 z"
       style="fill:#FFFFFF" />
  </g>
</svg>
