<?xml version="1.0" encoding="iso-8859-1"?>
<!-- Generator: Adobe Illustrator 16.0.0, SVG Export Plug-In . SVG Version: 6.00 Build 0)  -->
<!DOCTYPE svg PUBLIC "-//W3C//DTD SVG 1.1//EN" "http://www.w3.org/Graphics/SVG/1.1/DTD/svg11.dtd">
<svg version="1.1" id="Capa_1" xmlns="http://www.w3.org/2000/svg" xmlns:xlink="http://www.w3.org/1999/xlink" x="0px" y="0px"
	 width="612.008px" height="612.007px" viewBox="0 0 612.008 612.007" style="enable-background:new 0 0 612.008 612.007;"
	 xml:space="preserve">
<g>
	<path d="M612.008,89.517c-0.071-2.462-0.762-4.587-1.931-6.749c-0.354-0.691-0.071-1.541-0.585-2.196
		c-0.248-0.266-0.584-0.23-0.832-0.443c-0.283-0.354-0.283-0.797-0.514-1.081c-2.285-2.25-5.084-3.614-8.06-4.145
		c-0.319-0.036-0.479,0.124-0.762,0.071c-2.692-0.336-5.509-0.177-8.024,0.939L9.024,331.306c-5.916,2.604-9.547,8.732-8.963,15.198
		c0.514,6.465,5.154,11.868,11.514,13.409l131.717,31.919l64.034,136.624c0.443,0.886,1.275,1.329,1.877,2.091
		c0.284,0.478,0.106,1.08,0.514,1.505c0.584,0.744,1.523,1.099,2.285,1.665c0.584,0.496,1.098,0.992,1.877,1.364
		c2.285,1.258,4.641,2.108,7.192,2.108c0.584,0,1.098-0.036,1.701-0.106c2.869-0.319,5.296-1.683,7.439-3.348
		c0.248-0.213,0.655-0.106,0.939-0.337l100.913-89.028l99.851,32.753c7.439,2.32,15.57-1.223,18.688-8.396L611.37,95.787
		c0.319-0.903,0.071-1.895,0.248-2.852C611.938,91.731,612.008,90.757,612.008,89.517z M237.581,389.335
		c-0.283,0.194-0.177,0.566-0.443,0.779c-2.001,2.055-3.702,4.429-4.322,7.333l-16.987,77.639l-42.477-90.764l262.141-170.865
		L237.581,389.335z M434.873,177.624L151.193,362.5l-88.851-21.504L434.873,177.624z M245.783,480.064l13.037-59.73l39.82,13.056
		L245.783,480.064z M428.266,444l-150.847-49.51l279.11-248.06L428.266,444z"/>
</g>
<g>
</g>
<g>
</g>
<g>
</g>
<g>
</g>
<g>
</g>
<g>
</g>
<g>
</g>
<g>
</g>
<g>
</g>
<g>
</g>
<g>
</g>
<g>
</g>
<g>
</g>
<g>
</g>
<g>
</g>
</svg>
